<?xml version="1.0" standalone="no"?>
<!DOCTYPE svg PUBLIC "-//W3C//DTD SVG 20010904//EN"
 "http://www.w3.org/TR/2001/REC-SVG-20010904/DTD/svg10.dtd">
<svg version="1.0" xmlns="http://www.w3.org/2000/svg"
 width="1280.000000pt" height="1280.000000pt" viewBox="0 0 1280.000000 1280.000000"
 preserveAspectRatio="xMidYMid meet">
<metadata>
Created by potrace 1.15, written by Peter Selinger 2001-2017
</metadata>
<g transform="translate(0.000000,1280.000000) scale(0.100000,-0.100000)"
fill="#2196f3" stroke="none">
<path d="M7950 12414 c-123 -33 -239 -104 -344 -210 -117 -118 -194 -257 -264
-475 -57 -177 -67 -252 -67 -494 0 -206 2 -227 28 -328 60 -239 155 -409 311
-555 134 -125 279 -165 458 -127 276 58 529 344 633 715 42 152 57 251 62 425
7 248 -28 443 -112 618 -100 209 -269 377 -432 427 -78 24 -192 26 -273 4z"/>
<path d="M10003 11799 c-313 -37 -627 -277 -831 -637 -191 -335 -253 -679
-176 -976 51 -196 180 -361 344 -440 62 -29 71 -31 185 -31 145 1 232 22 380
94 251 123 466 350 604 641 59 125 93 223 128 373 23 96 26 135 26 267 0 140
-3 164 -27 245 -40 132 -98 236 -175 314 -126 127 -266 173 -458 150z"/>
<path d="M2328 11760 c-82 -4 -150 -9 -153 -12 -10 -10 -24 -664 -36 -1662
-12 -1012 -3 -2341 22 -3339 10 -419 12 -433 57 -452 33 -15 953 -35 1837 -41
843 -5 1465 3 1482 20 14 14 8 1468 -6 1494 -27 50 -36 51 -558 62 -268 5
-591 10 -718 10 l-230 0 -1 1113 c-1 1006 -13 1988 -30 2536 -7 202 -7 204
-33 233 l-26 28 -250 10 c-273 11 -1122 11 -1357 0z"/>
<path d="M6155 11041 c-131 -37 -234 -115 -314 -238 -149 -226 -221 -538 -193
-826 39 -392 219 -715 500 -894 108 -70 240 -92 367 -63 118 27 255 119 331
223 258 349 293 897 84 1323 -127 260 -300 430 -485 479 -77 20 -214 18 -290
-4z"/>
<path d="M10654 9729 c-74 -12 -210 -57 -279 -91 -186 -93 -388 -273 -507
-453 -91 -136 -182 -328 -210 -439 -32 -130 -32 -328 0 -441 77 -267 258 -405
533 -405 148 0 269 30 419 105 229 115 436 322 577 575 52 92 121 280 139 375
19 106 15 275 -10 370 -43 159 -148 301 -271 363 -94 47 -255 64 -391 41z"/>
<path d="M7838 9359 c-324 -31 -619 -149 -898 -358 -346 -259 -620 -535 -831
-836 -92 -131 -216 -345 -239 -415 -32 -91 -38 -251 -15 -354 39 -176 163
-345 305 -414 162 -79 390 -108 714 -90 111 6 291 11 401 11 186 0 211 -2 353
-32 287 -59 454 -151 771 -427 325 -283 401 -336 556 -384 97 -30 248 -37 339
-16 165 39 283 131 354 276 67 137 84 215 89 430 7 253 -18 442 -97 755 -175
691 -348 1082 -623 1412 -218 261 -504 404 -886 442 -115 12 -166 12 -293 0z"/>
<path d="M2469 5986 c-2 -2 -118 -6 -258 -9 -140 -4 -256 -8 -258 -10 -7 -8
121 -790 217 -1317 153 -844 428 -2160 751 -3590 69 -307 116 -494 128 -510
10 -14 29 -31 43 -37 31 -16 746 -33 1338 -33 404 1 1108 15 1117 23 10 11
301 1308 448 2002 242 1140 512 2575 620 3292 16 113 11 143 -30 161 -54 25
-1296 39 -1535 17 -14 -1 -59 -3 -100 -3 l-76 -2 -28 -142 c-128 -649 -264
-1503 -421 -2643 -103 -750 -101 -734 -108 -705 -4 14 -41 273 -82 575 -179
1304 -424 2790 -471 2863 -30 46 -64 51 -391 62 -298 9 -895 14 -904 6z"/>
<path d="M7432 5980 c-255 -4 -467 -11 -471 -16 -14 -15 -32 -1076 -38 -2211
-6 -1201 18 -3146 41 -3192 6 -13 22 -32 36 -42 23 -17 75 -20 650 -34 977
-23 1686 -28 2309 -16 450 8 576 13 582 23 11 17 10 1387 0 1451 -10 63 -29
79 -98 88 -32 4 -430 11 -885 15 l-828 7 0 234 0 233 590 0 590 0 0 655 c0
715 1 698 -57 724 -21 9 -144 14 -488 17 -253 3 -500 7 -550 10 l-90 5 3 233
3 233 867 7 c477 3 881 9 898 12 l31 6 6 366 c3 202 3 537 -1 744 l-7 378 -28
27 c-27 27 -31 28 -175 35 -232 11 -2378 17 -2890 8z"/>
</g>
</svg>
